<?xml version="1.0" standalone="no"?>
<!DOCTYPE svg PUBLIC "-//W3C//DTD SVG 20010904//EN"
 "http://www.w3.org/TR/2001/REC-SVG-20010904/DTD/svg10.dtd">
<svg version="1.0" xmlns="http://www.w3.org/2000/svg"
 width="3800.000000pt" height="1024.000000pt" viewBox="0 0 3800.000000 1024.000000"
 preserveAspectRatio="xMidYMid meet">

<g transform="translate(0.000000,1024.000000) scale(0.100000,-0.100000)"
fill="#000000" stroke="none">
<path d="M2184 7426 l-34 -34 0 -391 c0 -281 3 -397 12 -416 24 -54 34 -55
453 -55 419 0 429 1 453 55 9 19 12 134 12 410 0 276 -3 391 -12 410 -24 54
-34 55 -459 55 l-391 0 -34 -34z"/>
<path d="M4075 7441 c-11 -5 -29 -19 -40 -31 -19 -21 -20 -36 -20 -422 l0
-400 33 -29 32 -29 3195 0 c2455 0 3200 3 3220 12 54 24 55 34 55 452 l0 386
-29 32 -29 33 -3199 2 c-1759 1 -3207 -2 -3218 -6z"/>
<path d="M13575 7079 c-771 -79 -1356 -485 -1636 -1135 -114 -264 -162 -519
-163 -854 0 -343 47 -593 164 -865 264 -615 804 -1012 1520 -1120 150 -22 422
-30 555 -16 397 43 750 195 996 428 87 84 189 202 189 219 -1 5 -157 125 -347
266 l-345 256 -57 -71 c-121 -152 -291 -260 -488 -309 -72 -18 -116 -22 -243
-22 -135 1 -168 4 -252 27 -353 94 -625 365 -752 748 -55 167 -69 279 -63 502
4 171 8 205 35 307 107 414 371 713 732 830 168 55 414 63 590 20 158 -39 324
-134 421 -242 l37 -41 318 259 c174 143 319 264 321 269 5 15 -150 169 -232
231 -199 148 -454 252 -735 299 -114 19 -438 27 -565 14z"/>
<path d="M18595 7076 c-179 -44 -319 -200 -348 -386 -43 -281 179 -540 463
-540 285 0 507 261 461 543 -44 272 -310 449 -576 383z"/>
<path d="M28535 7076 c-179 -44 -319 -200 -348 -386 -43 -281 179 -540 463
-540 285 0 507 261 461 543 -44 272 -310 449 -576 383z"/>
<path d="M20220 6180 l0 -390 -260 0 -260 0 0 -325 0 -325 260 0 260 0 0 -661
c0 -696 3 -750 46 -870 38 -106 72 -159 158 -245 117 -116 246 -178 461 -221
71 -14 136 -18 310 -17 232 1 347 14 478 54 l67 21 0 334 0 334 -52 -24 c-109
-50 -356 -58 -469 -16 -60 23 -119 72 -145 122 -39 77 -44 145 -44 677 l0 512
355 0 355 0 0 325 0 325 -355 0 -355 0 0 390 0 390 -405 0 -405 0 0 -390z"/>
<path d="M17234 5845 c-95 -17 -136 -31 -219 -73 -94 -49 -252 -206 -315 -314
-25 -43 -48 -78 -52 -78 -5 0 -8 92 -8 205 l0 205 -405 0 -405 0 0 -1305 0
-1305 405 0 405 0 0 578 c0 785 12 924 90 1090 66 140 192 238 356 279 99 24
371 23 474 -1 41 -10 85 -21 98 -23 l22 -5 0 365 c0 340 -1 366 -17 371 -91
27 -309 33 -429 11z"/>
<path d="M23615 5853 c-82 -7 -258 -45 -346 -73 -461 -151 -791 -503 -898
-956 -72 -311 -35 -668 98 -939 193 -393 533 -643 1003 -737 161 -32 456 -32
605 0 188 41 373 117 525 218 69 46 274 236 280 260 2 7 -123 104 -277 217
l-280 205 -24 -31 c-46 -61 -159 -162 -222 -200 -90 -53 -176 -78 -294 -84
-125 -6 -221 13 -325 63 -141 70 -262 222 -304 382 l-14 52 934 0 934 0 0 213
c0 299 -28 471 -107 672 -191 486 -598 752 -1138 743 -60 -1 -128 -3 -150 -5z
m225 -589 c66 -15 161 -63 209 -107 83 -76 140 -194 156 -320 l7 -57 -536 0
c-295 0 -536 3 -536 8 0 4 7 37 14 73 62 290 374 474 686 403z"/>
<path d="M27174 5845 c-95 -17 -136 -31 -219 -73 -94 -49 -252 -206 -315 -314
-25 -43 -48 -78 -52 -78 -5 0 -8 92 -8 205 l0 205 -405 0 -405 0 0 -1305 0
-1305 405 0 405 0 0 578 c0 785 12 924 90 1090 66 140 192 238 356 279 99 24
371 23 474 -1 41 -10 85 -21 98 -23 l22 -5 0 365 c0 340 -1 366 -17 371 -91
27 -309 33 -429 11z"/>
<path d="M31029 5845 c-344 -47 -643 -194 -860 -423 -238 -250 -359 -565 -359
-932 0 -505 243 -932 665 -1172 283 -161 657 -229 1007 -183 354 46 636 182
861 414 249 258 367 559 367 941 0 382 -118 683 -367 941 -182 188 -397 310
-671 380 -184 47 -446 61 -643 34z m436 -720 c208 -56 357 -210 416 -432 16
-59 21 -108 21 -203 0 -212 -57 -365 -182 -490 -104 -104 -228 -155 -406 -167
-293 -19 -519 99 -630 332 -46 95 -64 187 -64 325 0 138 18 230 64 325 83 174
225 283 421 321 88 17 277 11 360 -11z"/>
<path d="M34828 5844 c-217 -39 -422 -163 -538 -327 l-55 -77 -3 175 -2 175
-390 0 -390 0 0 -1305 0 -1305 405 0 405 0 0 678 c0 678 6 840 36 957 46 176
168 294 340 326 67 13 212 6 264 -12 92 -32 172 -114 210 -216 51 -136 52
-147 57 -965 l5 -768 400 0 399 0 -4 883 c-3 776 -5 895 -20 987 -82 500 -314
745 -757 800 -113 14 -268 11 -362 -6z"/>
<path d="M18310 4485 l0 -1305 400 0 400 0 0 1305 0 1305 -400 0 -400 0 0
-1305z"/>
<path d="M28250 4485 l0 -1305 400 0 400 0 0 1305 0 1305 -400 0 -400 0 0
-1305z"/>
<path d="M2224 5579 c-17 -5 -39 -18 -50 -30 -18 -20 -19 -41 -19 -429 0 -387
1 -409 19 -429 10 -11 35 -25 55 -31 48 -13 724 -13 773 0 20 6 46 22 58 37
19 25 20 38 20 423 0 385 -1 398 -20 423 -12 15 -38 31 -58 37 -46 12 -734 12
-778 -1z"/>
<path d="M4063 5552 c-12 -9 -27 -30 -32 -45 -15 -39 -15 -733 0 -775 23 -66
-42 -62 1029 -62 677 0 977 3 992 11 44 24 48 56 48 439 0 383 -4 415 -48 439
-15 8 -315 11 -994 11 -907 0 -975 -2 -995 -18z"/>
<path d="M2201 3696 c-50 -27 -50 -34 -51 -454 l0 -394 34 -34 34 -34 391 0
c425 0 435 1 459 55 17 37 17 783 0 820 -24 54 -34 55 -455 55 -303 -1 -393
-4 -412 -14z"/>
<path d="M4080 3677 c-14 -7 -33 -28 -43 -47 -16 -32 -17 -68 -15 -413 l3
-379 33 -29 32 -29 970 0 970 0 32 29 33 29 0 396 0 396 -28 27 -27 28 -968 2
c-761 2 -972 0 -992 -10z"/>
</g>
</svg>
