<?xml version="1.0" encoding="UTF-8"?>
<svg xmlns="http://www.w3.org/2000/svg" xmlns:xlink="http://www.w3.org/1999/xlink" width="186px" height="50px" viewBox="0 0 185 50" version="1.1">
<g id="surface1">
<path style=" stroke:none;fill-rule:nonzero;fill:rgb(0%,0%,0%);fill-opacity:1;" d="M 10.632812 13.742188 L 10.46875 13.90625 L 10.46875 15.816406 C 10.46875 17.1875 10.480469 17.753906 10.527344 17.847656 C 10.640625 18.109375 10.691406 18.117188 12.730469 18.117188 C 14.769531 18.117188 14.820312 18.109375 14.9375 17.847656 C 14.980469 17.753906 14.996094 17.191406 14.996094 15.84375 C 14.996094 14.496094 14.980469 13.9375 14.9375 13.84375 C 14.820312 13.578125 14.769531 13.574219 12.703125 13.574219 L 10.796875 13.574219 Z M 10.632812 13.742188 "/>
<path style=" stroke:none;fill-rule:nonzero;fill:rgb(0%,0%,0%);fill-opacity:1;" d="M 19.839844 13.667969 C 19.785156 13.691406 19.699219 13.757812 19.644531 13.820312 C 19.550781 13.921875 19.546875 13.992188 19.546875 15.878906 L 19.546875 17.832031 L 19.707031 17.972656 L 19.863281 18.117188 L 35.417969 18.117188 C 47.371094 18.117188 50.996094 18.101562 51.09375 18.054688 C 51.355469 17.9375 51.363281 17.890625 51.363281 15.851562 L 51.363281 13.964844 L 51.21875 13.808594 L 51.078125 13.648438 L 35.503906 13.636719 C 26.941406 13.632812 19.890625 13.648438 19.839844 13.667969 Z M 19.839844 13.667969 "/>
<path style=" stroke:none;fill-rule:nonzero;fill:rgb(0%,0%,0%);fill-opacity:1;" d="M 66.089844 15.433594 C 62.335938 15.820312 59.488281 17.804688 58.125 20.976562 C 57.570312 22.265625 57.335938 23.511719 57.332031 25.148438 C 57.332031 26.820312 57.558594 28.042969 58.128906 29.371094 C 59.414062 32.375 62.042969 34.3125 65.527344 34.839844 C 66.257812 34.945312 67.582031 34.984375 68.230469 34.917969 C 70.164062 34.707031 71.882812 33.964844 73.078125 32.828125 C 73.503906 32.417969 74 31.839844 74 31.757812 C 73.996094 31.734375 73.234375 31.148438 72.3125 30.460938 L 70.632812 29.210938 L 70.355469 29.554688 C 69.765625 30.296875 68.9375 30.824219 67.976562 31.0625 C 67.628906 31.152344 67.414062 31.171875 66.792969 31.171875 C 66.136719 31.167969 65.976562 31.152344 65.566406 31.039062 C 63.847656 30.582031 62.523438 29.257812 61.90625 27.386719 C 61.640625 26.570312 61.570312 26.023438 61.601562 24.9375 C 61.621094 24.101562 61.640625 23.9375 61.769531 23.4375 C 62.292969 21.414062 63.578125 19.957031 65.335938 19.382812 C 66.152344 19.117188 67.351562 19.078125 68.207031 19.289062 C 68.976562 19.476562 69.785156 19.941406 70.257812 20.46875 L 70.4375 20.667969 L 71.984375 19.40625 C 72.832031 18.707031 73.539062 18.117188 73.546875 18.089844 C 73.570312 18.015625 72.816406 17.265625 72.417969 16.960938 C 71.449219 16.242188 70.207031 15.734375 68.839844 15.503906 C 68.285156 15.410156 66.707031 15.371094 66.089844 15.433594 Z M 66.089844 15.433594 "/>
<path style=" stroke:none;fill-rule:nonzero;fill:rgb(0%,0%,0%);fill-opacity:1;" d="M 90.527344 15.449219 C 89.65625 15.664062 88.976562 16.425781 88.835938 17.335938 C 88.625 18.707031 89.707031 19.96875 91.089844 19.96875 C 92.476562 19.96875 93.554688 18.695312 93.332031 17.320312 C 93.117188 15.992188 91.824219 15.125 90.527344 15.449219 Z M 90.527344 15.449219 "/>
<path style=" stroke:none;fill-rule:nonzero;fill:rgb(0%,0%,0%);fill-opacity:1;" d="M 138.921875 15.449219 C 138.050781 15.664062 137.367188 16.425781 137.226562 17.335938 C 137.015625 18.707031 138.097656 19.96875 139.480469 19.96875 C 140.867188 19.96875 141.949219 18.695312 141.722656 17.320312 C 141.511719 15.992188 140.214844 15.125 138.921875 15.449219 Z M 138.921875 15.449219 "/>
<path style=" stroke:none;fill-rule:nonzero;fill:rgb(0%,0%,0%);fill-opacity:1;" d="M 98.441406 19.824219 L 98.441406 21.726562 L 95.90625 21.726562 L 95.90625 24.902344 L 98.441406 24.902344 L 98.441406 28.128906 C 98.441406 31.527344 98.453125 31.792969 98.664062 32.378906 C 98.847656 32.894531 99.015625 33.15625 99.433594 33.574219 C 100.003906 34.140625 100.628906 34.445312 101.675781 34.652344 C 102.023438 34.722656 102.339844 34.742188 103.1875 34.734375 C 104.316406 34.730469 104.875 34.667969 105.511719 34.472656 L 105.839844 34.371094 L 105.839844 31.109375 L 105.585938 31.226562 C 105.054688 31.46875 103.851562 31.507812 103.304688 31.304688 C 103.011719 31.191406 102.722656 30.953125 102.597656 30.707031 C 102.40625 30.332031 102.382812 30 102.382812 27.402344 L 102.382812 24.902344 L 105.839844 24.902344 L 105.839844 21.726562 L 102.382812 21.726562 L 102.382812 17.921875 L 98.441406 17.921875 Z M 98.441406 19.824219 "/>
<path style=" stroke:none;fill-rule:nonzero;fill:rgb(0%,0%,0%);fill-opacity:1;" d="M 83.902344 21.460938 C 83.441406 21.542969 83.242188 21.609375 82.835938 21.816406 C 82.378906 22.054688 81.609375 22.820312 81.300781 23.351562 C 81.179688 23.558594 81.070312 23.730469 81.050781 23.730469 C 81.023438 23.730469 81.011719 23.28125 81.011719 22.730469 L 81.011719 21.726562 L 77.066406 21.726562 L 77.066406 34.472656 L 81.011719 34.472656 L 81.011719 31.648438 C 81.011719 27.816406 81.070312 27.140625 81.449219 26.328125 C 81.769531 25.644531 82.382812 25.164062 83.183594 24.964844 C 83.664062 24.847656 84.988281 24.851562 85.488281 24.96875 C 85.6875 25.019531 85.902344 25.074219 85.964844 25.082031 L 86.074219 25.109375 L 86.074219 23.324219 C 86.074219 21.664062 86.070312 21.539062 85.992188 21.515625 C 85.546875 21.382812 84.488281 21.351562 83.902344 21.460938 Z M 83.902344 21.460938 "/>
<path style=" stroke:none;fill-rule:nonzero;fill:rgb(0%,0%,0%);fill-opacity:1;" d="M 114.96875 21.421875 C 114.570312 21.453125 113.710938 21.640625 113.285156 21.777344 C 111.039062 22.515625 109.433594 24.234375 108.910156 26.445312 C 108.5625 27.964844 108.742188 29.707031 109.386719 31.03125 C 110.328125 32.949219 111.984375 34.171875 114.273438 34.628906 C 115.054688 34.785156 116.492188 34.785156 117.21875 34.628906 C 118.132812 34.429688 119.03125 34.058594 119.773438 33.5625 C 120.109375 33.339844 121.105469 32.414062 121.136719 32.296875 C 121.144531 32.261719 120.539062 31.789062 119.789062 31.234375 L 118.425781 30.234375 L 118.308594 30.386719 C 118.082031 30.683594 117.535156 31.175781 117.226562 31.363281 C 116.789062 31.621094 116.371094 31.742188 115.796875 31.773438 C 115.1875 31.800781 114.71875 31.710938 114.214844 31.464844 C 113.527344 31.125 112.9375 30.382812 112.734375 29.601562 L 112.664062 29.34375 L 121.757812 29.34375 L 121.757812 28.304688 C 121.757812 26.84375 121.621094 26.007812 121.238281 25.023438 C 120.308594 22.652344 118.328125 21.351562 115.699219 21.398438 C 115.40625 21.402344 115.074219 21.410156 114.96875 21.421875 Z M 116.0625 24.296875 C 116.382812 24.371094 116.847656 24.605469 117.082031 24.820312 C 117.484375 25.191406 117.761719 25.765625 117.839844 26.382812 L 117.875 26.660156 L 115.265625 26.660156 C 113.828125 26.660156 112.65625 26.644531 112.65625 26.621094 C 112.65625 26.601562 112.6875 26.441406 112.722656 26.265625 C 113.023438 24.847656 114.542969 23.949219 116.0625 24.296875 Z M 116.0625 24.296875 "/>
<path style=" stroke:none;fill-rule:nonzero;fill:rgb(0%,0%,0%);fill-opacity:1;" d="M 132.292969 21.460938 C 131.832031 21.542969 131.632812 21.609375 131.226562 21.816406 C 130.769531 22.054688 130 22.820312 129.695312 23.351562 C 129.574219 23.558594 129.460938 23.730469 129.441406 23.730469 C 129.417969 23.730469 129.402344 23.28125 129.402344 22.730469 L 129.402344 21.726562 L 125.460938 21.726562 L 125.460938 34.472656 L 129.402344 34.472656 L 129.402344 31.648438 C 129.402344 27.816406 129.460938 27.140625 129.839844 26.328125 C 130.160156 25.644531 130.777344 25.164062 131.574219 24.964844 C 132.054688 24.847656 133.378906 24.851562 133.882812 24.96875 C 134.082031 25.019531 134.296875 25.074219 134.359375 25.082031 L 134.464844 25.109375 L 134.464844 23.324219 C 134.464844 21.664062 134.460938 21.539062 134.382812 21.515625 C 133.941406 21.382812 132.878906 21.351562 132.292969 21.460938 Z M 132.292969 21.460938 "/>
<path style=" stroke:none;fill-rule:nonzero;fill:rgb(0%,0%,0%);fill-opacity:1;" d="M 151.0625 21.460938 C 149.386719 21.6875 147.933594 22.40625 146.875 23.523438 C 145.714844 24.746094 145.128906 26.285156 145.128906 28.078125 C 145.128906 30.542969 146.3125 32.625 148.363281 33.796875 C 149.742188 34.585938 151.5625 34.917969 153.269531 34.691406 C 154.992188 34.46875 156.363281 33.804688 157.460938 32.671875 C 158.671875 31.410156 159.246094 29.941406 159.246094 28.078125 C 159.246094 26.210938 158.671875 24.742188 157.460938 23.480469 C 156.574219 22.5625 155.527344 21.96875 154.191406 21.625 C 153.296875 21.398438 152.019531 21.328125 151.0625 21.460938 Z M 153.183594 24.976562 C 154.199219 25.25 154.921875 26 155.210938 27.085938 C 155.289062 27.375 155.3125 27.613281 155.3125 28.078125 C 155.3125 29.109375 155.035156 29.859375 154.425781 30.46875 C 153.921875 30.976562 153.316406 31.226562 152.449219 31.285156 C 151.023438 31.375 149.921875 30.800781 149.382812 29.664062 C 149.160156 29.199219 149.070312 28.75 149.070312 28.078125 C 149.070312 27.402344 149.160156 26.953125 149.382812 26.488281 C 149.785156 25.640625 150.476562 25.109375 151.433594 24.921875 C 151.859375 24.839844 152.78125 24.867188 153.183594 24.976562 Z M 153.183594 24.976562 "/>
<path style=" stroke:none;fill-rule:nonzero;fill:rgb(0%,0%,0%);fill-opacity:1;" d="M 169.558594 21.464844 C 168.5 21.65625 167.503906 22.261719 166.9375 23.0625 L 166.671875 23.4375 L 166.65625 22.582031 L 166.644531 21.726562 L 162.847656 21.726562 L 162.847656 34.472656 L 166.792969 34.472656 L 166.792969 31.164062 C 166.792969 27.851562 166.820312 27.0625 166.96875 26.488281 C 167.191406 25.628906 167.785156 25.054688 168.621094 24.898438 C 168.949219 24.835938 169.65625 24.867188 169.90625 24.957031 C 170.355469 25.113281 170.746094 25.511719 170.929688 26.011719 C 171.179688 26.675781 171.183594 26.726562 171.207031 30.722656 L 171.230469 34.472656 L 175.121094 34.472656 L 175.101562 30.160156 C 175.089844 26.371094 175.078125 25.789062 175.003906 25.34375 C 174.605469 22.898438 173.476562 21.703125 171.320312 21.4375 C 170.769531 21.367188 170.015625 21.382812 169.558594 21.464844 Z M 169.558594 21.464844 "/>
<path style=" stroke:none;fill-rule:nonzero;fill:rgb(0%,0%,0%);fill-opacity:1;" d="M 89.140625 28.101562 L 89.140625 34.472656 L 93.035156 34.472656 L 93.035156 21.726562 L 89.140625 21.726562 Z M 89.140625 28.101562 "/>
<path style=" stroke:none;fill-rule:nonzero;fill:rgb(0%,0%,0%);fill-opacity:1;" d="M 137.53125 28.101562 L 137.53125 34.472656 L 141.425781 34.472656 L 141.425781 21.726562 L 137.53125 21.726562 Z M 137.53125 28.101562 "/>
<path style=" stroke:none;fill-rule:nonzero;fill:rgb(0%,0%,0%);fill-opacity:1;" d="M 10.828125 22.757812 C 10.746094 22.78125 10.636719 22.847656 10.582031 22.90625 C 10.496094 23.003906 10.492188 23.105469 10.492188 25 C 10.492188 26.890625 10.496094 26.996094 10.582031 27.09375 C 10.632812 27.148438 10.753906 27.21875 10.851562 27.246094 C 11.085938 27.308594 14.375 27.308594 14.613281 27.246094 C 14.710938 27.21875 14.839844 27.140625 14.898438 27.066406 C 14.988281 26.945312 14.996094 26.878906 14.996094 25 C 14.996094 23.121094 14.988281 23.054688 14.898438 22.933594 C 14.839844 22.859375 14.710938 22.78125 14.613281 22.753906 C 14.390625 22.695312 11.042969 22.695312 10.828125 22.757812 Z M 10.828125 22.757812 "/>
<path style=" stroke:none;fill-rule:nonzero;fill:rgb(0%,0%,0%);fill-opacity:1;" d="M 19.78125 22.890625 C 19.722656 22.933594 19.648438 23.039062 19.625 23.109375 C 19.550781 23.300781 19.550781 26.6875 19.625 26.894531 C 19.738281 27.21875 19.421875 27.195312 24.632812 27.195312 C 27.929688 27.195312 29.390625 27.183594 29.464844 27.144531 C 29.679688 27.027344 29.699219 26.871094 29.699219 25 C 29.699219 23.128906 29.679688 22.972656 29.464844 22.855469 C 29.390625 22.816406 27.929688 22.804688 24.625 22.804688 C 20.207031 22.804688 19.878906 22.8125 19.78125 22.890625 Z M 19.78125 22.890625 "/>
<path style=" stroke:none;fill-rule:nonzero;fill:rgb(0%,0%,0%);fill-opacity:1;" d="M 10.714844 31.953125 C 10.472656 32.085938 10.472656 32.117188 10.46875 34.171875 L 10.46875 36.09375 L 10.632812 36.257812 L 10.796875 36.425781 L 12.703125 36.425781 C 14.769531 36.425781 14.820312 36.421875 14.9375 36.15625 C 15.019531 35.976562 15.019531 32.335938 14.9375 32.152344 C 14.820312 31.890625 14.769531 31.882812 12.722656 31.882812 C 11.246094 31.890625 10.808594 31.90625 10.714844 31.953125 Z M 10.714844 31.953125 "/>
<path style=" stroke:none;fill-rule:nonzero;fill:rgb(0%,0%,0%);fill-opacity:1;" d="M 19.863281 32.046875 C 19.796875 32.078125 19.703125 32.183594 19.652344 32.273438 C 19.574219 32.429688 19.570312 32.609375 19.582031 34.292969 L 19.59375 36.140625 L 19.757812 36.285156 L 19.910156 36.425781 L 29.355469 36.425781 L 29.511719 36.285156 L 29.671875 36.140625 L 29.671875 32.273438 L 29.535156 32.144531 L 29.40625 32.007812 L 24.691406 31.996094 C 20.988281 31.988281 19.960938 31.996094 19.863281 32.046875 Z M 19.863281 32.046875 "/>
</g>
</svg>
